<?xml version="1.0" encoding="UTF-8"?>
<svg id="Layer_2" data-name="Layer 2" xmlns="http://www.w3.org/2000/svg" viewBox="0 0 443.21 135.5">
  <defs>
    <style>
      .cls-1 {
        fill: #2e00ff;
      }

      .cls-2 {
        fill: #fff;
      }
    </style>
  </defs>
  <g id="Layer_1-2" data-name="Layer 1">
    <g>
      <path d="M0,135.5h6.86v-30.03c4.57,5.11,11.21,8.27,18.72,8.27,13.82,0,25.46-11.32,25.46-25.46s-11.64-25.24-25.46-25.24S0,74.57,0,88.28v47.23h0ZM6.64,88.28c0-10.23,8.38-18.93,18.93-18.93s18.93,8.71,18.93,18.93-8.71,19.04-18.93,19.04-18.82-8.38-18.93-18.93c0,0,0-.11,0-.11ZM97.39,63.03v30.03c-.87,7.73-8.05,14.47-16,14.36-8.92,0-15.89-7.51-15.89-15.89v-28.51h-6.31v28.51c-.11,12.08,9.79,22.2,22.2,22.2,6.09.11,11.75-2.5,15.89-6.64v3.05c.11,10.55-8.05,19.04-18.61,19.04-4.24,0-8.49-1.41-11.64-4.24l-3.81,5.22c4.13,3.59,9.79,5.33,15.45,5.33,14.04,0,25.24-11.32,25.24-25.35v-47.12h-6.53Z"/>
      <path d="M320.35,110.15c0,10.55-8.16,19.04-18.72,19.04-4.24,0-8.49-1.41-11.64-4.24l-3.81,5.22c4.13,3.59,9.79,5.33,15.45,5.33,14.58,0,25.35-10.99,25.35-25.35v-21.87c0-13.71-11.75-25.24-25.57-25.24s-25.24,11.53-25.24,25.24,11.1,25.46,25.24,25.46c7.4,0,14.25-3.26,18.93-8.38v4.79h0ZM301.41,107.32c-10.55,0-18.93-8.49-18.93-19.04s8.38-18.93,18.93-18.93,18.93,8.71,18.93,18.93-8.71,19.04-18.93,19.04ZM358.98,113.74c-14.04,0-25.46-11.32-25.46-25.35s11.43-25.35,25.46-25.35,25.46,11.32,25.46,25.35v3.16h-44.4c1.63,9.03,9.36,15.78,18.93,15.78h.33c3.7,0,7.4-.98,10.55-3.05l3.59,5.11c-4.24,2.94-9.14,4.35-14.15,4.35h-.33,0ZM377.69,85.12c-1.41-8.92-9.36-15.89-18.72-15.89s-17.3,6.96-18.93,15.89h37.65ZM438.52,85.23c0-12.08-9.9-22.2-22.31-22.2-6.09,0-11.75,2.61-15.89,6.75v-6.75h-6.64v50.71h6.64v-28.51c0-8.38,7.51-15.89,15.89-15.89,8.92,0,16,7.51,16,15.89v28.51h6.31v-28.51h0Z"/>
    </g>
    <path class="cls-1" d="M121,63.03h-6.2v50.71h6.2v-34.49c0-5.66,4.57-10.01,10.01-10.01s10.45,4.35,10.45,10.01v34.49h6.2v-34.49c0-5.66,4.46-10.01,10.12-10.01s9.9,4.35,9.9,10.01v34.49h6.31v-34.49c0-9.03-7.18-16.21-16.21-16.21-5.55,0-10.34,2.61-13.28,6.75-3.05-4.13-8.05-6.75-13.49-6.75-3.81,0-7.29,1.31-10.01,3.48v-3.48h0ZM233.62,113.74v-25.46c-.22-13.71-12.08-25.24-25.9-25.24s-25.57,11.53-25.57,25.24,11.43,25.46,25.57,25.46c7.51,0,14.47-3.37,19.15-8.6v8.6h6.75ZM207.73,107.32c-10.55,0-18.93-8.49-18.93-19.04s8.38-18.93,18.93-18.93,18.93,8.71,18.93,18.93-8.71,19.04-18.93,19.04ZM265.29,69.34v-6.31h-15.78v-30.58h-6.64v59.52c0,12.08,10.34,21.87,22.42,21.76v-6.31c-8.38,0-15.78-7.07-15.78-15.45v-22.63h15.78Z"/>
    <g>
      <path class="cls-1" d="M307.86,0h109.97c14.02,0,25.38,11.36,25.38,25.38h0c0,14.02-11.36,25.38-25.38,25.38h-109.97c-14.02,0-25.38-11.36-25.38-25.38h0c0-14.02,11.36-25.38,25.38-25.38Z"/>
      <path class="cls-2" d="M317.62,19.59c-.61-.79-1.45-1.43-2.5-1.91-1.05-.48-2.13-.72-3.22-.72s-2.17.23-3.09.69c-.92.46-1.71,1.07-2.37,1.84-.66.77-1.17,1.66-1.55,2.67s-.56,2.08-.56,3.22.18,2.22.53,3.22.87,1.9,1.55,2.67c.68.77,1.49,1.37,2.43,1.81.94.44,2.01.66,3.19.66,1.1,0,2.18-.21,3.26-.63,1.07-.42,1.94-1.02,2.6-1.81l5.99,7.3c-1.36,1.32-3.12,2.35-5.26,3.09s-4.43,1.12-6.84,1.12c-2.59,0-5-.39-7.24-1.18-2.24-.79-4.18-1.94-5.82-3.46s-2.94-3.35-3.88-5.5c-.94-2.15-1.41-4.58-1.41-7.3s.47-5.09,1.41-7.24c.94-2.15,2.24-3.98,3.88-5.5s3.59-2.68,5.82-3.49c2.24-.81,4.63-1.22,7.17-1.22,1.18,0,2.36.11,3.52.33,1.16.22,2.28.52,3.36.89s2.06.83,2.96,1.38c.9.55,1.68,1.15,2.34,1.81l-6.25,7.24ZM364.22,25.25c0,2.68-.48,5.1-1.45,7.27s-2.28,4.01-3.95,5.53c-1.67,1.51-3.6,2.69-5.79,3.52-2.19.83-4.54,1.25-7.04,1.25-2.46,0-4.79-.42-7.01-1.25s-4.15-2.01-5.79-3.52-2.95-3.36-3.92-5.53c-.97-2.17-1.45-4.6-1.45-7.27s.48-5.09,1.45-7.24c.97-2.15,2.27-3.97,3.92-5.46,1.65-1.49,3.58-2.63,5.79-3.42,2.22-.79,4.55-1.18,7.01-1.18s4.85.39,7.04,1.18c2.19.79,4.12,1.93,5.79,3.42,1.67,1.49,2.98,3.31,3.95,5.46.97,2.15,1.45,4.56,1.45,7.24ZM353.82,25.25c0-1.05-.18-2.08-.53-3.09s-.86-1.9-1.51-2.67c-.66-.77-1.47-1.39-2.43-1.88-.97-.48-2.08-.72-3.36-.72s-2.39.24-3.36.72c-.97.48-1.77,1.11-2.4,1.88-.64.77-1.12,1.66-1.45,2.67s-.49,2.04-.49,3.09.16,2.08.49,3.09c.33,1.01.82,1.92,1.48,2.73.66.81,1.47,1.46,2.43,1.94.97.48,2.08.72,3.36.72,1.27,0,2.39-.24,3.36-.72.97-.48,1.78-1.13,2.43-1.94.66-.81,1.15-1.72,1.48-2.73.33-1.01.49-2.04.49-3.09ZM393.63,17.81c-.48-.13-.95-.22-1.41-.26s-.91-.07-1.35-.07c-1.45,0-2.67.26-3.65.79-.99.53-1.78,1.16-2.37,1.91-.59.75-1.02,1.56-1.28,2.43s-.39,1.65-.39,2.3v16.85h-10.79V8.99h10.4v4.74h.13c.83-1.67,2.02-3.03,3.55-4.08,1.54-1.05,3.31-1.58,5.33-1.58.44,0,.87.02,1.28.07.42.04.76.11,1.02.2l-.46,9.48ZM422.33,21.63c0-1.71-.54-3.18-1.61-4.41-1.07-1.23-2.69-1.84-4.84-1.84-1.05,0-2.02.16-2.9.49-.88.33-1.65.78-2.3,1.35-.66.57-1.18,1.24-1.58,2.01-.39.77-.61,1.57-.66,2.4h13.89ZM432.26,25.77v1.32c0,.44-.02.86-.07,1.25h-23.76c.09.92.36,1.75.82,2.5s1.05,1.39,1.78,1.94c.72.55,1.54.98,2.43,1.28.9.31,1.83.46,2.8.46,1.71,0,3.16-.32,4.34-.95s2.15-1.46,2.9-2.47l7.5,4.74c-1.54,2.24-3.56,3.96-6.09,5.17s-5.45,1.81-8.79,1.81c-2.46,0-4.78-.38-6.98-1.15-2.19-.77-4.11-1.89-5.76-3.36-1.65-1.47-2.94-3.28-3.88-5.43s-1.41-4.61-1.41-7.37.46-5.1,1.38-7.27c.92-2.17,2.17-4.01,3.75-5.53s3.44-2.69,5.59-3.52c2.15-.83,4.48-1.25,6.98-1.25s4.63.41,6.65,1.22c2.02.81,3.75,1.99,5.2,3.52,1.45,1.54,2.58,3.4,3.39,5.59s1.22,4.69,1.22,7.5Z"/>
    </g>
  </g>
</svg>
